HIERARCHY
ROOT Pelvis
{
	OFFSET 0.000000 0.000000 0.000000
	CHANNELS 6 Xposition Yposition Zposition Zrotation Yrotation Xrotation 
	JOINT Left_hip
	{
		OFFSET 0.070241 -0.085575 -0.010474
		CHANNELS 3 Zrotation Yrotation Xrotation
		JOINT Left_knee
		{
			OFFSET 0.032125 -0.356873 -0.000555
			CHANNELS 3 Zrotation Yrotation Xrotation
			JOINT Left_ankle
			{
				OFFSET -0.010961 -0.370212 -0.042278
				CHANNELS 3 Zrotation Yrotation Xrotation
				JOINT Left_foot
				{
					OFFSET 0.023322 -0.052281 0.110104
					CHANNELS 3 Zrotation Yrotation Xrotation
					End Site
					{
						OFFSET 0.000000 0.000000 0.000000
					}
				}
			}
		}
	}
	JOINT Right_hip
	{
		OFFSET -0.068518 -0.084320 -0.007402
		CHANNELS 3 Zrotation Yrotation Xrotation
		JOINT Right_knee
		{
			OFFSET -0.037345 -0.364815 -0.003619
			CHANNELS 3 Zrotation Yrotation Xrotation
			JOINT Right_ankle
			{
				OFFSET 0.013394 -0.370006 -0.039954
				CHANNELS 3 Zrotation Yrotation Xrotation
				JOINT Right_foot
				{
					OFFSET -0.019600 -0.045455 0.113223
					CHANNELS 3 Zrotation Yrotation Xrotation
					End Site
					{
						OFFSET 0.000000 0.000000 0.000000
					}
				}
			}
		}
	}
	JOINT Spine1
	{
		OFFSET -0.002404 0.098129 -0.018169
		CHANNELS 3 Zrotation Yrotation Xrotation
		JOINT Spine2
		{
			OFFSET 0.003989 0.127209 -0.001742
			CHANNELS 3 Zrotation Yrotation Xrotation
			JOINT Spine3
			{
				OFFSET 0.001758 0.046641 0.023475
				CHANNELS 3 Zrotation Yrotation Xrotation
				JOINT Neck
				{
					OFFSET -0.003759 0.194901 -0.039982
					CHANNELS 3 Zrotation Yrotation Xrotation
					JOINT Head
					{
						OFFSET 0.003999 0.063756 0.047665
						CHANNELS 3 Zrotation Yrotation Xrotation
						End Site
						{
							OFFSET 0.000000 0.000000 0.000000
						}
					}
				}
				JOINT Left_collar
				{
					OFFSET 0.071816 0.109048 -0.028973
					CHANNELS 3 Zrotation Yrotation Xrotation
					JOINT Left_shoulder
					{
						OFFSET 0.084027 0.032269 -0.006525
						CHANNELS 3 Zrotation Yrotation Xrotation
						JOINT Left_elbow
						{
							OFFSET 0.243854 -0.013992 -0.025905
							CHANNELS 3 Zrotation Yrotation Xrotation
							JOINT Left_wrist
							{
								OFFSET 0.232156 0.008196 -0.000339
								CHANNELS 3 Zrotation Yrotation Xrotation
								JOINT Left_palm
								{
									OFFSET 0.075377 -0.009461 -0.012494
									CHANNELS 3 Zrotation Yrotation Xrotation
									End Site
									{
										OFFSET 0.000000 0.000000 0.000000
									}
								}
							}
						}
					}
				}
				JOINT Right_collar
				{
					OFFSET -0.073768 0.107001 -0.033755
					CHANNELS 3 Zrotation Yrotation Xrotation
					JOINT Right_shoulder
					{
						OFFSET -0.086837 0.032868 -0.009431
						CHANNELS 3 Zrotation Yrotation Xrotation
						JOINT Right_elbow
						{
							OFFSET -0.236446 -0.012544 -0.018747
							CHANNELS 3 Zrotation Yrotation Xrotation
							JOINT Right_wrist
							{
								OFFSET -0.236110 0.006124 -0.004327
								CHANNELS 3 Zrotation Yrotation Xrotation
								JOINT Right_palm
								{
									OFFSET -0.074800 -0.006875 -0.009610
									CHANNELS 3 Zrotation Yrotation Xrotation
									End Site
									{
										OFFSET 0.000000 0.000000 0.000000
									}
								}
							}
						}
					}
				}
			}
		}
	}
}
MOTION
Frames: 10
Frame Time: 0.100000
0.072337 0.243179 -0.183015 176.720446 25.826666 -22.374840 11.352724 2.620224 -50.130187 -2.090225 14.778221 60.952924 2.046873 7.995876 3.442394 2.258433 13.052515 -17.836196 -7.820658 1.280543 -50.639909 4.573525 -3.955885 66.834009 11.896006 -3.281184 -9.352815 -28.793514 0.025774 -2.930226 2.116149 -0.297726 24.802820 -0.942815 -3.328728 -14.510075 0.097371 4.595774 1.837739 -15.215405 -18.706014 5.983685 11.628518 -1.815647 -2.112215 -3.720403 -15.064140 -7.881255 -59.351702 -9.155659 25.276609 3.563502 -85.579460 17.139519 4.393257 -10.682279 -48.179163 -15.403056 -3.218781 3.447599 -3.174088 17.403688 -12.717460 22.670982 34.120602 -6.571905 -161.258917 54.897050 -142.195156 -26.723111 14.196302 -10.227631 21.951260 2.110797 -4.802822 
0.072199 0.242875 -0.182997 176.671660 25.806686 -22.273261 11.377374 2.629323 -50.248904 -2.047599 14.776093 60.949878 2.068022 7.927776 3.495351 2.065939 13.084511 -17.960122 -7.797852 1.222354 -50.737150 4.592757 -3.967240 66.794309 12.140395 -3.261461 -9.316069 -29.260457 -0.050364 -3.071103 2.125445 -0.280515 24.721121 -1.007160 -3.324686 -14.836872 0.164608 4.638056 1.642305 -15.010742 -18.958780 5.097153 11.920292 -1.897070 -2.766959 -3.586160 -15.439230 -7.925239 -59.237472 -8.912009 25.036785 3.773498 -85.427030 17.687256 3.564177 -11.050490 -47.209694 -15.364939 -3.419932 3.146356 -3.480311 17.757332 -12.812809 22.244380 34.212159 -7.307467 -160.533240 54.671887 -141.057856 -26.237928 14.409728 -9.489781 22.015144 2.233834 -5.090594 
0.072187 0.242862 -0.183207 176.665746 25.733005 -22.305660 11.386679 2.633671 -50.242760 -2.029726 14.763468 60.941151 2.099445 7.902792 3.530819 1.908294 13.091316 -18.039847 -7.785054 1.179979 -50.721323 4.617737 -3.980641 66.754674 12.230836 -3.231198 -9.271261 -29.372158 -0.070016 -3.106844 2.120740 -0.279843 24.628932 -1.004909 -3.343524 -14.953108 0.212253 4.652667 1.645723 -14.885734 -18.972689 4.806415 12.072537 -1.811347 -2.984224 -3.509171 -15.646997 -7.890610 -59.232425 -8.726271 24.917139 3.394702 -85.466748 18.125003 3.626110 -11.072664 -47.247227 -15.367011 -3.422110 3.113997 -3.651675 17.948318 -12.803486 22.040737 34.229641 -7.660646 -160.233879 54.554200 -140.751655 -26.425770 14.471558 -9.379370 22.052254 2.202977 -5.160696 
0.072651 0.243429 -0.183702 176.642291 25.745239 -22.621917 11.425880 2.637560 -49.912513 -2.083245 14.738195 60.868230 2.372277 7.850464 3.696626 1.421390 13.069655 -18.495330 -7.683742 1.240291 -50.422538 4.675198 -3.903135 66.723566 12.188761 -3.387390 -9.237842 -29.298338 0.179639 -3.068469 1.970611 -0.281034 24.477864 -0.956645 -3.469359 -14.741882 0.175974 4.480732 1.714788 -14.480757 -17.884040 5.037554 11.988067 -1.309295 -1.513350 -3.516625 -15.545046 -7.752119 -59.613624 -8.859705 25.031629 2.740732 -85.069523 18.179685 2.523960 -11.099276 -47.343118 -15.828088 -3.590684 2.757244 -3.291321 17.635018 -12.258794 24.912468 33.436227 -5.296927 -160.422438 56.079048 -141.103423 -24.671297 13.834581 -10.466698 22.248313 2.490865 -5.086963 
0.073181 0.244858 -0.184599 176.680275 25.745310 -23.145699 11.462050 2.769187 -49.407123 -2.289742 14.694613 60.845833 2.699570 8.099134 3.804365 1.136802 12.457516 -19.015661 -7.518062 1.287746 -49.996763 4.946334 -3.756911 66.739372 11.066509 -3.930993 -9.277310 -27.020689 1.337959 -2.762078 1.732436 -0.208563 24.192160 -0.700491 -3.366032 -14.317448 -0.045859 4.182949 1.820906 -13.784851 -14.805923 5.712713 10.622840 0.034681 3.347519 -3.743196 -13.957380 -7.825742 -60.160977 -10.161573 26.338806 -3.693456 -84.633927 21.044872 4.194747 -9.398505 -50.453079 -16.455842 -3.426613 3.136633 -1.435774 16.012708 -10.832940 30.410257 31.402875 1.328152 -162.780409 62.668457 -145.648082 -24.361439 11.454902 -15.206576 22.134728 3.038002 -4.085106 
0.073867 0.246033 -0.185322 176.891767 25.515376 -23.914858 11.635132 2.896105 -48.514318 -2.615250 14.850622 60.715794 3.405355 8.329536 3.963792 0.655254 12.125120 -19.634642 -7.244792 1.340813 -49.293426 5.331345 -3.468303 66.724880 9.721141 -4.605258 -9.262940 -24.724414 2.519615 -2.371904 1.525711 -0.138536 24.301086 -0.518040 -3.197316 -13.668951 -0.247891 3.816420 2.046038 -12.509192 -11.508758 6.481952 9.172745 1.317923 7.674682 -3.364247 -11.620951 -8.386658 -61.024426 -11.540795 27.247606 -8.229582 -84.594890 21.948725 -2.652573 -8.188705 -49.864892 -17.865626 -4.312725 1.804799 0.237678 14.109868 -9.225440 36.651013 28.586230 9.329880 -173.919662 72.562039 -157.896610 -12.981336 7.158498 -16.959382 21.912179 4.901487 -4.526647 
0.074462 0.246809 -0.185587 176.980540 25.400149 -24.647141 11.829297 2.924393 -47.718676 -2.904663 15.020704 60.634590 3.912027 8.514177 4.011751 0.590457 12.019472 -20.010123 -7.004684 1.382845 -48.633002 5.636929 -3.230662 66.734467 8.702550 -5.215980 -9.241948 -23.413695 3.426727 -2.355634 1.476220 -0.042100 24.831446 -0.589220 -2.959574 -12.914222 -0.341862 3.500758 2.045344 -11.117726 -9.617130 6.797837 8.396391 1.385629 9.050261 -2.874096 -9.646204 -9.254870 -61.856168 -12.330292 27.642632 -8.980432 -84.552755 19.751073 -13.766179 -7.831989 -46.629294 -19.605417 -5.944006 -0.907631 1.055609 13.260443 -7.897825 41.636410 25.313166 16.406173 147.824571 79.589349 163.136478 3.489311 3.849957 -19.075814 21.447569 7.127683 -5.771359 
0.074557 0.247486 -0.185878 177.046292 25.309816 -25.079622 11.793271 3.024498 -47.211321 -3.042262 14.866811 60.654613 3.795131 8.874551 3.813384 0.999432 11.519735 -20.079373 -6.882759 1.497154 -48.212819 5.816082 -3.129583 66.785351 7.713428 -5.613481 -9.226278 -21.661053 4.295349 -2.382621 1.323110 0.096989 25.067894 -0.350440 -2.646615 -11.661675 -0.428173 3.383974 1.819627 -10.315312 -8.553908 7.138962 7.714877 0.636080 9.403363 -2.895131 -8.211248 -9.443730 -62.073331 -13.461367 28.551067 -12.252118 -84.448364 20.248961 -12.330164 -7.146322 -48.127863 -20.038084 -5.831074 -1.389162 2.213172 12.867170 -6.965977 44.862905 23.271711 20.324282 104.606982 82.051063 117.361888 3.776113 3.236035 -24.367818 20.868850 7.303653 -4.859980 
0.075117 0.247750 -0.185348 176.797115 25.364100 -25.339102 11.901269 3.260245 -47.203616 -3.358339 14.507544 60.765938 3.365779 9.293685 3.867399 2.005662 11.365415 -20.094288 -6.724231 1.590701 -48.172833 4.557386 -3.845064 68.513467 6.697588 -7.810542 -11.089241 -20.961177 4.752083 -1.545512 1.365052 0.005148 25.584987 0.020493 -2.569277 -11.215001 -0.264385 3.223699 2.123249 -10.297626 -7.785555 7.740374 7.198103 0.718069 9.169797 -2.849737 -7.133939 -9.269839 -62.415105 -14.332479 28.695512 -12.979911 -84.894000 20.354850 -10.872651 -6.271447 -49.442941 -21.000834 -5.879605 -1.367861 2.974888 12.115561 -7.026133 46.623796 22.555062 21.304519 96.530626 83.427839 107.929622 2.142452 2.621016 -28.172533 21.519682 7.415737 -4.027547 
0.075408 0.247436 -0.183097 177.299953 25.071537 -24.275749 12.151481 3.638340 -47.894898 -3.816085 15.102944 60.960894 3.697640 9.303147 3.316863 2.297699 11.767602 -20.052672 -6.715693 1.327866 -47.866871 5.441055 -5.043669 74.873697 6.299071 -6.684957 -15.543816 -20.892352 4.516076 -1.156216 1.049411 0.322481 26.169851 -0.142491 -2.541592 -10.185075 -0.302875 3.148285 1.919439 -9.549814 -6.457478 8.028652 7.215651 0.514485 8.369831 -2.625819 -6.562472 -9.416239 -62.613289 -14.971987 28.328290 -2.893070 -85.608493 11.272904 -12.087420 -6.646636 -47.533690 -21.510318 -6.357200 -3.205691 3.376728 11.951383 -6.815206 48.317012 22.036106 21.416747 111.790425 85.786160 123.041651 2.913632 3.510779 -30.557674 21.737526 7.224896 -3.950976 
